<svg xmlns="http://www.w3.org/2000/svg" xmlns:xlink="http://www.w3.org/1999/xlink" width="190.13" height="60" viewBox="0 0 190.13 60">
  <defs>
    <clipPath id="clip-path">
      <rect id="Retângulo_1186" data-name="Retângulo 1186" width="190.13" height="49.179" fill="#fff"/>
    </clipPath>
  </defs>
  <g id="Grupo_2717" data-name="Grupo 2717" transform="translate(0 0)">
    <g id="Grupo_2095" data-name="Grupo 2095" transform="translate(39.493 50.851)">
      <path id="Caminho_305" data-name="Caminho 305" d="M43.712,58.433l1.309,0,1.214,3.121h.02l1.2-3.125,1.308,0-2.514,5.607Z" transform="translate(-43.712 -56.424)" fill="#fff"/>
      <path id="Caminho_306" data-name="Caminho 306" d="M51.875,62.924a1.772,1.772,0,1,0-1.741-1.768,1.755,1.755,0,0,0,1.741,1.768m1.669.289h-.024a2.236,2.236,0,0,1-1.792.814,2.815,2.815,0,0,1-2.835-2.869,2.924,2.924,0,0,1,2.881-2.883,2.033,2.033,0,0,1,1.738.811h.022v-.669h1.174l.01,5.458-1.174,0Z" transform="translate(-43.521 -56.429)" fill="#fff"/>
      <path id="Caminho_307" data-name="Caminho 307" d="M57.128,56.841l.009,4.885c0,.631.138.856.487,1.059l.632.361-.518.926c-1.206-.575-1.772-.989-1.773-2.129l-.01-5.1Z" transform="translate(-43.26 -56.482)" fill="#fff"/>
      <path id="Caminho_308" data-name="Caminho 308" d="M62.929,60.568a1.639,1.639,0,0,0-1.613-1.27,1.549,1.549,0,0,0-1.544,1.276Zm1.087,2.108A3.3,3.3,0,0,1,61.48,64.01a2.878,2.878,0,1,1-.011-5.749,2.934,2.934,0,0,1,2.838,3.06v.217l-4.535.006a1.648,1.648,0,0,0,1.674,1.43,1.944,1.944,0,0,0,1.577-.848Z" transform="translate(-43.168 -56.43)" fill="#fff"/>
      <path id="Caminho_309" data-name="Caminho 309" d="M72.3,60.552A1.641,1.641,0,0,0,70.69,59.28a1.552,1.552,0,0,0-1.545,1.278Zm1.088,2.1a3.3,3.3,0,0,1-2.536,1.337,2.879,2.879,0,1,1-.009-5.752A2.936,2.936,0,0,1,73.681,61.3v.213l-4.532.01a1.645,1.645,0,0,0,1.674,1.428,1.943,1.943,0,0,0,1.576-.848Z" transform="translate(-42.822 -56.431)" fill="#fff"/>
      <path id="Caminho_310" data-name="Caminho 310" d="M75.792,56.808l.009,4.883c0,.631.138.859.486,1.059l.631.363-.515.924c-1.209-.573-1.773-.99-1.775-2.127l-.008-5.1Z" transform="translate(-42.572 -56.483)" fill="#fff"/>
      <path id="Caminho_311" data-name="Caminho 311" d="M81.593,60.532a1.643,1.643,0,0,0-1.614-1.27,1.549,1.549,0,0,0-1.543,1.278Zm1.088,2.108a3.308,3.308,0,0,1-2.535,1.337,2.88,2.88,0,1,1-.011-5.754,2.939,2.939,0,0,1,2.837,3.064V61.5l-4.534.006a1.644,1.644,0,0,0,1.672,1.43,1.943,1.943,0,0,0,1.577-.846Z" transform="translate(-42.479 -56.431)" fill="#fff"/>
      <path id="Caminho_312" data-name="Caminho 312" d="M83.411,58.424l.665,0,0-1.443,1.173-.329,0,1.77h.936l0,1.1-.936,0,0,2.154c0,.587.138.856.487,1.059l.63.361-.516.925c-1.206-.572-1.772-.988-1.772-2.128l-.005-2.368h-.667Z" transform="translate(-42.248 -56.489)" fill="#fff"/>
      <path id="Caminho_313" data-name="Caminho 313" d="M87.107,58.358h1.105v.6h.023a1.168,1.168,0,0,1,1.072-.746,1.2,1.2,0,0,1,.642.169l-.415,1.164a.847.847,0,0,0-.44-.159.8.8,0,0,0-.812.824l.006,3.609H87.118Z" transform="translate(-42.111 -56.432)" fill="#fff"/>
      <path id="Caminho_314" data-name="Caminho 314" d="M91.888,57.055l1.263-.419,1.262.415,0,.753-1.264-.437-1.263.443Zm1.274,5.851a1.772,1.772,0,1,0-1.775-1.769,1.742,1.742,0,0,0,1.775,1.769m-.01-4.646a2.877,2.877,0,1,1-3,2.881,2.882,2.882,0,0,1,3-2.881" transform="translate(-41.999 -56.49)" fill="#fff"/>
      <path id="Caminho_315" data-name="Caminho 315" d="M96.994,58.34l1.174,0v.686h.022a1.935,1.935,0,0,1,1.668-.836,2.188,2.188,0,0,1,2.125,2.308l.005,3.293-1.171,0-.007-3.036c0-.99-.522-1.4-1.3-1.4a1.275,1.275,0,0,0-1.339,1.38l.006,3.058H97Z" transform="translate(-41.747 -56.433)" fill="#fff"/>
      <path id="Caminho_316" data-name="Caminho 316" d="M103.261,58.384h1.173l.009,5.458-1.171,0Zm.584-1.77a.654.654,0,1,1-.652.656.654.654,0,0,1,.652-.656" transform="translate(-41.518 -56.491)" fill="#fff"/>
      <path id="Caminho_317" data-name="Caminho 317" d="M109.892,60.1a1.627,1.627,0,0,0-1.423-.822,1.771,1.771,0,0,0,.006,3.542,1.628,1.628,0,0,0,1.419-.824l1.025.606a2.914,2.914,0,0,1-2.443,1.323,2.878,2.878,0,1,1-.011-5.749,2.812,2.812,0,0,1,2.449,1.314Z" transform="translate(-41.435 -56.433)" fill="#fff"/>
      <path id="Caminho_318" data-name="Caminho 318" d="M114.315,62.808a1.771,1.771,0,1,0-1.773-1.768,1.736,1.736,0,0,0,1.773,1.768m-.008-4.645a2.878,2.878,0,1,1-3,2.879,2.881,2.881,0,0,1,3-2.879" transform="translate(-41.219 -56.433)" fill="#fff"/>
      <path id="Caminho_319" data-name="Caminho 319" d="M121.066,60.337a2.012,2.012,0,0,1,1.993-2.191,1.635,1.635,0,0,1,1.637.967h.023a1.634,1.634,0,0,1,1.635-.972,2.006,2.006,0,0,1,2,2.181l.006,3.419-1.172,0-.006-3.406a.927.927,0,0,0-.905-1.024c-.564,0-.979.342-.979,1.186l.007,3.251h-1.174l-.006-3.251c0-.844-.419-1.18-.984-1.18a.928.928,0,0,0-.9,1.029l.007,3.4-1.172,0Z" transform="translate(-40.859 -56.434)" fill="#fff"/>
      <path id="Caminho_320" data-name="Caminho 320" d="M133.69,60.437a1.638,1.638,0,0,0-1.613-1.27,1.551,1.551,0,0,0-1.545,1.276Zm1.087,2.11a3.305,3.305,0,0,1-2.535,1.332,2.88,2.88,0,1,1-.009-5.754,2.939,2.939,0,0,1,2.835,3.064V61.4l-4.532.008a1.643,1.643,0,0,0,1.671,1.43A1.943,1.943,0,0,0,133.784,62Z" transform="translate(-40.558 -56.435)" fill="#fff"/>
      <path id="Caminho_321" data-name="Caminho 321" d="M135.509,58.326h.665l0-1.443,1.173-.331,0,1.772.936,0,0,1.105h-.937l0,2.156c0,.587.137.856.486,1.059l.634.361-.516.927c-1.209-.572-1.774-.992-1.777-2.128l0-2.37-.666,0Z" transform="translate(-40.326 -56.493)" fill="#fff"/>
      <path id="Caminho_322" data-name="Caminho 322" d="M139.2,58.262l1.1,0,0,.6h.021a1.174,1.174,0,0,1,1.07-.747,1.206,1.206,0,0,1,.644.168l-.415,1.164a.869.869,0,0,0-.442-.159.8.8,0,0,0-.81.826l.006,3.607-1.173,0Z" transform="translate(-40.19 -56.435)" fill="#fff"/>
      <path id="Caminho_323" data-name="Caminho 323" d="M145.064,62.75a1.77,1.77,0,1,0-1.773-1.766,1.738,1.738,0,0,0,1.773,1.766m-.009-4.645a2.879,2.879,0,1,1-3,2.884,2.885,2.885,0,0,1,3-2.884" transform="translate(-40.085 -56.436)" fill="#fff"/>
      <path id="Caminho_324" data-name="Caminho 324" d="M151.741,59.2a1.77,1.77,0,1,0,1.739,1.768,1.756,1.756,0,0,0-1.739-1.768m-1.669-.289h.022a2.233,2.233,0,0,1,1.794-.814,2.814,2.814,0,0,1,2.835,2.867,2.921,2.921,0,0,1-2.883,2.88,2.023,2.023,0,0,1-1.738-.807h-.024l.005,2.548-1.172,0-.015-7.341h1.174Z" transform="translate(-39.833 -56.436)" fill="#fff"/>
      <path id="Caminho_325" data-name="Caminho 325" d="M158.18,62.729a1.773,1.773,0,1,0-1.774-1.771,1.74,1.74,0,0,0,1.774,1.771m-.007-4.646a2.878,2.878,0,1,1-3.006,2.879,2.881,2.881,0,0,1,3.006-2.879" transform="translate(-39.601 -56.436)" fill="#fff"/>
      <path id="Caminho_326" data-name="Caminho 326" d="M163.206,56.648l.009,4.883c0,.631.137.856.487,1.06l.633.36-.516.924c-1.209-.571-1.774-.988-1.775-2.127l-.011-5.1Z" transform="translate(-39.348 -56.489)" fill="#fff"/>
      <path id="Caminho_327" data-name="Caminho 327" d="M164.867,58.275l1.172,0,.012,5.458-1.174,0Zm.583-1.774a.654.654,0,1,1-.653.656.658.658,0,0,1,.653-.656" transform="translate(-39.246 -56.495)" fill="#fff"/>
      <path id="Caminho_328" data-name="Caminho 328" d="M166.975,58.267h.665l-.005-1.442,1.175-.33v1.77h.938v1.1l-.937,0,.005,2.154c0,.585.137.856.488,1.059l.632.359-.518.927c-1.207-.574-1.773-.99-1.775-2.13l0-2.368-.665,0Z" transform="translate(-39.166 -56.495)" fill="#fff"/>
      <path id="Caminho_329" data-name="Caminho 329" d="M173.266,62.7a1.771,1.771,0,1,0-1.741-1.768,1.755,1.755,0,0,0,1.741,1.768m1.668.289h-.023a2.233,2.233,0,0,1-1.791.814,2.812,2.812,0,0,1-2.837-2.869,2.921,2.921,0,0,1,2.88-2.88,2.016,2.016,0,0,1,1.739.81h.024l0-.666,1.175,0,.011,5.456-1.173,0Z" transform="translate(-39.044 -56.438)" fill="#fff"/>
      <path id="Caminho_330" data-name="Caminho 330" d="M177.329,58.192l1.172,0v.688h.022a1.929,1.929,0,0,1,1.668-.839,2.192,2.192,0,0,1,2.126,2.307l.005,3.3-1.173,0-.006-3.034c0-.992-.522-1.4-1.3-1.4a1.275,1.275,0,0,0-1.341,1.377l.005,3.057-1.173,0Z" transform="translate(-38.784 -56.438)" fill="#fff"/>
      <path id="Caminho_331" data-name="Caminho 331" d="M186.2,62.675a1.769,1.769,0,1,0-1.773-1.767,1.738,1.738,0,0,0,1.773,1.767m-.008-4.646a2.879,2.879,0,1,1-3,2.881,2.881,2.881,0,0,1,3-2.881" transform="translate(-38.568 -56.438)" fill="#fff"/>
    </g>
    <g id="Grupo_2481" data-name="Grupo 2481">
      <g id="Grupo_2481-2" data-name="Grupo 2481" transform="translate(0 0)" clip-path="url(#clip-path)">
        <path id="Caminho_5078" data-name="Caminho 5078" d="M165.9,0c-7.012.011-12.1,3.382-13.923,8.287l-.185,0a11.851,11.851,0,0,0-5.069-5.972l.031,15.561a18.468,18.468,0,0,1,.159,2.243l.042,27.682,10-.017L156.906,20.1c-.012-7.212,3.538-10.1,8.347-10.109,4.133-.005,7.687,3.152,7.7,8.729l.057,29.031L183,47.741l-.049-29.123C182.931,6.789,175.036-.014,165.9,0" transform="translate(-14.381 0)" fill="#fff"/>
        <path id="Caminho_5079" data-name="Caminho 5079" d="M134.011.055C127,.068,121.9,3.443,120.095,8.347h-.19C118.06,3.446,112.961.09,105.949.106c-9.134.015-17,6.856-16.981,18.677l.014,7.9,10-.017-.015-7.811c-.009-5.576,3.539-8.751,7.667-8.761,4.81,0,8.37,2.867,8.39,10.081l.051,27.686,10-.023-.059-27.678c-.015-7.221,3.536-10.1,8.339-10.114,4.142-.007,7.7,3.161,7.7,8.738l.057,29.024,10-.014-.05-29.129C151.04,6.844,143.15.035,134.011.055" transform="translate(-8.72 -0.005)" fill="#fff"/>
        <path id="Caminho_5080" data-name="Caminho 5080" d="M83.367,19.854C81.244,12.749,75.952,9,69.608,9.02S58.084,12.979,56.46,19.909ZM92.636,37.8C87.07,44.834,79.394,49.087,71.03,49.2c-16.241.028-25.689-12.161-25.712-24.464S54.7.2,70.942.174C80.649.157,95.08,8.1,95.117,26.268V28.1l-38.64.072c.593,7.112,7.23,12.192,14.246,12.183,5.389-.011,9.993-2.616,13.446-7.238Z" transform="translate(-4.442 -0.017)" fill="#fff"/>
        <path id="Caminho_5081" data-name="Caminho 5081" d="M19.184.27,30.328.256l10.339,26.6.188,0,3.832-11.568,11.152-.019L40.8,48Z" transform="translate(-1.88 -0.025)" fill="#fff"/>
        <rect id="Retângulo_1184" data-name="Retângulo 1184" width="31.249" height="9.465" transform="translate(158.881 38.266)" fill="#fff"/>
        <rect id="Retângulo_1185" data-name="Retângulo 1185" width="28.45" height="9.358" transform="translate(0 0.244)" fill="#fff"/>
      </g>
    </g>
  </g>
</svg>
